<svg width="404" height="235" fill="none" xmlns="http://www.w3.org/2000/svg"><path d="M53 30c0-5.523 4.477-10 10-10h199c5.523 0 10 4.477 10 10s-4.477 10-10 10H63c-5.523 0-10-4.477-10-10Z" fill="url(#a)"/><path d="M53 70c0-5.523 4.477-10 10-10h300c5.523 0 10 4.477 10 10s-4.477 10-10 10H63c-5.523 0-10-4.477-10-10Z" fill="url(#b)"/><path d="M84 110c0-5.523 4.477-10 10-10h300c5.523 0 10 4.477 10 10s-4.477 10-10 10H94c-5.523 0-10-4.477-10-10Z" fill="url(#c)"/><path d="M0 150c0-5.523 4.477-10 10-10h384c5.523 0 10 4.477 10 10s-4.477 10-10 10H10c-5.523 0-10-4.477-10-10Z" fill="url(#d)"/><path d="M32 190c0-5.523 4.477-10 10-10h300c5.523 0 10 4.477 10 10s-4.477 10-10 10H42c-5.523 0-10-4.477-10-10Z" fill="url(#e)"/><path d="M153 210h144c0 5.523-4.477 10-10 10H163c-5.523 0-10-4.477-10-10Z" fill="url(#f)"/><path d="M153 210h144c0-5.523 4.477-10 10-10H143c5.523 0 10 4.477 10 10Z" fill="url(#g)"/><path d="M49 180h279c-5.523 0-10-4.477-10-10s4.477-10 10-10H49c5.523 0 10 4.477 10 10s-4.477 10-10 10Z" fill="url(#h)"/><path d="M120 140h186c-5.523 0-10-4.477-10-10s4.477-10 10-10H120c5.523 0 10 4.477 10 10s-4.477 10-10 10Z" fill="url(#i)"/><path d="M105 100h239c-5.523 0-10-4.477-10-10s4.477-10 10-10H105c5.523 0 10 4.477 10 10s-4.477 10-10 10Z" fill="url(#j)"/><path d="M103 60h159c-5.523 0-10-4.477-10-10s4.477-10 10-10H103c5.523 0 10 4.477 10 10s-4.477 10-10 10Z" fill="url(#k)"/><path d="M130 11.252a5 5 0 0 1 4.197-4.935l33-5.372A5 5 0 0 1 173 5.88v42.868a5 5 0 0 1-4.197 4.935l-33 5.372A5 5 0 0 1 130 54.12V11.252Z" fill="#26A269"/><path d="M242 49.972a5 5 0 0 1 5.879-4.922l46 8.214A5 5 0 0 1 298 58.186v32.842a5 5 0 0 1-5.879 4.922l-46-8.214A5 5 0 0 1 242 82.814V49.972Z" fill="#A51D2D"/><path d="M214 176.654a5.001 5.001 0 0 1 3.481-4.764l59-18.812c3.225-1.028 6.519 1.379 6.519 4.764v51.504a5.001 5.001 0 0 1-3.481 4.764l-59 18.812c-3.225 1.028-6.519-1.379-6.519-4.764v-51.504Z" fill="#613583"/><path d="M67 130.615a5 5 0 0 1 5.578-4.966l32.999 3.837a4.999 4.999 0 0 1 4.423 4.966v34.933a5 5 0 0 1-5.578 4.966l-33-3.837A5 5 0 0 1 67 165.548v-34.933Z" fill="#E5A50A"/><path d="M318 111.489a5 5 0 0 1 4.463-4.971l27-2.919A5 5 0 0 1 355 108.57v17.941a5 5 0 0 1-4.463 4.971l-27 2.919A5 5 0 0 1 318 129.43v-17.941Z" fill="#C64600"/><path d="M130 11.252a5 5 0 0 1 4.197-4.935l33-5.372A5 5 0 0 1 173 5.88v40.868a5 5 0 0 1-4.197 4.935l-33 5.372A5 5 0 0 1 130 52.12V11.252Z" fill="#2EC27E"/><path d="M242 49.972a5 5 0 0 1 5.879-4.922l46 8.214A5 5 0 0 1 298 58.186v30.842a5 5 0 0 1-5.879 4.922l-46-8.214A5 5 0 0 1 242 80.814V49.972Z" fill="#C01C28"/><path d="M214 176.654a5.001 5.001 0 0 1 3.481-4.764l59-18.812c3.225-1.028 6.519 1.379 6.519 4.764v48.504a5.001 5.001 0 0 1-3.481 4.764l-59 18.812c-3.225 1.028-6.519-1.379-6.519-4.764v-48.504Z" fill="#9141AC"/><path d="M67 130.615a5 5 0 0 1 5.578-4.966l32.999 3.837a4.999 4.999 0 0 1 4.423 4.966v32.933a5 5 0 0 1-5.578 4.966l-33-3.837A5 5 0 0 1 67 163.548v-32.933Z" fill="#F5C211"/><path d="M318 111.489a5 5 0 0 1 4.463-4.971l27-2.919A5 5 0 0 1 355 108.57v15.941a5 5 0 0 1-4.463 4.971l-27 2.919A5 5 0 0 1 318 127.43v-15.941Z" fill="#E66100"/><path d="M90.864 137.852c-.57-.096-1.122.035-1.537.364l-.442.335-.436-.458c-2.176-2.326-5.14.62-2.9 2.88l3.336 3.472 3.341-2.534c1.511-1.098.628-3.726-1.362-4.059Zm1.436 7.014a7.28 7.28 0 0 0-1.776-.035c.553.47 1.074.995 1.537 1.575.346.436.65.887.915 1.354 2.325.654 4.091 2.896 4.091 5.34 0 2.676-2.117 4.516-4.766 4.144-2.65-.372-4.767-2.808-4.767-5.484 0-.811.197-1.541.542-2.158a.719.719 0 0 0-.058-.078c-.623-.781-1.48-1.304-2.383-1.469-.527.958-.825 2.087-.825 3.323 0 4.163 3.367 8.037 7.49 8.617 4.124.579 7.492-2.348 7.492-6.512 0-4.163-3.368-8.038-7.491-8.617Z" fill="#FFF9A1"/><path d="M85.49 159.038a7.33 7.33 0 0 0 1.778.035 11.389 11.389 0 0 1-1.538-1.576c-.346-.43-.649-.886-.915-1.353-2.325-.655-4.091-2.896-4.091-5.341 0-2.675 2.117-4.516 4.767-4.143 2.65.372 4.767 2.808 4.767 5.483 0 .812-.197 1.541-.543 2.164.021.025.037.049.059.073.622.781 1.479 1.304 2.383 1.469.527-.958.825-2.087.825-3.323 0-4.164-3.368-8.038-7.491-8.617-4.123-.58-7.491 2.348-7.491 6.512 0 4.163 3.368 8.037 7.49 8.617Z" fill="#FFF9A1"/><path d="M149.527 21.49v4.359l-5.685 1.208S141 27.66 141 30.567v2.905l4.974.396 4.974-2.51 4.974.396 4.973-2.51v-2.906c0-2.906-2.842-2.302-2.842-2.302l-5.684 1.209v-4.359l-2.842.604ZM141 34.925v5.812l19.895-4.23v-5.81l-4.973 2.51-4.974-.396-4.974 2.51-4.974-.396Zm9.948-18.811s-1.505 1.625-1.416 2.475c.061.662.75 1.288 1.416 1.146.666-.141 1.354-1.06 1.415-1.748.089-.887-1.415-1.873-1.415-1.873Z" fill="#A5F8B7"/><path d="M245.689 178.686c-.437.159-.854.496-1.163.936l-2.807 4.009-1.786.65c-2.704.984-4.933 4.168-4.933 7.046v12.25c0 2.877 2.229 4.438 4.933 3.454l16.445-5.985c2.704-.985 4.933-4.168 4.933-7.046v-12.25c0-2.878-2.229-4.439-4.933-3.454l-1.786.65-2.807-1.966c-.308-.216-.726-.249-1.163-.09l-4.933 1.796Zm.681 3.252 3.571-1.3 2.808 1.966c.308.216.726.248 1.162.089l2.467-.897c.938-.342 1.644.153 1.644 1.151v12.25c0 .998-.706 2.007-1.644 2.349l-16.445 5.985c-.937.341-1.644-.153-1.644-1.152v-12.25c0-.998.707-2.007 1.644-2.348l2.467-.898c.437-.159.854-.495 1.163-.936l2.807-4.009Z" fill="#DC8ADD"/><path d="M248.156 184.788c-3.617 1.317-6.578 5.546-6.578 9.394 0 3.849 2.961 5.923 6.578 4.606 3.616-1.316 6.578-5.545 6.578-9.394 0-3.848-2.962-5.922-6.578-4.606Zm0 3.5c1.837-.668 3.289.348 3.289 2.303s-1.452 4.029-3.289 4.697c-1.837.669-3.289-.348-3.289-2.303s1.452-4.028 3.289-4.697Z" fill="#DC8ADD"/><path d="M269.34 60.823c-2.429-.428-4.431 1.19-4.431 3.583v2.073l-4.905-5.859-1.004-.177v13.091l.952.168 4.957-4.206v2.182c0 2.392 2.002 4.717 4.431 5.145l8.864 1.563c2.429.428 4.431-1.19 4.431-3.582V67.53c0-2.392-2.002-4.717-4.431-5.145l-8.864-1.563Zm0 2.91 8.864 1.562c.842.149 1.477.886 1.477 1.715v7.273c0 .83-.635 1.343-1.477 1.194l-8.864-1.563c-.842-.148-1.477-.885-1.477-1.715v-7.272c0-.83.635-1.343 1.477-1.195Z" fill="#FD8174"/><path d="m340.075 113.336 1.39-.146c1.031-.108 1.868.646 1.868 1.682v1.414c0 1.037-.837 1.967-1.868 2.075l-1.39.146c-1.031.108-1.868-.645-1.868-1.682v-1.414c0-1.037.837-1.966 1.868-2.075Z" fill="#FFBE6F"/><path d="M343.33 116.108v6.022c0 1.138-.918 2.154-2.046 2.272l-7.369.775a.762.762 0 0 1-.86-.775v-.38c0-1.687 1.359-3.196 3.037-3.373l2.012-.211c.977-.103 1.771-.984 1.771-1.964v-2.026l3.455-.34Zm-5.139-.88v-3.458l1.821 1.546-1.821 1.912Zm5.142-.541v-3.457l-1.681 1.914 1.681 1.543Z" fill="#FFBE6F"/><path d="m334.665 123.384-2.484.262a.75.75 0 0 1-.84-.757v-.138c0-.896.365-1.789 1.008-2.476l1.546-1.65c.576-.613.901-1.415.901-2.212v-.219c0-1.276-1.021-2.195-2.29-2.062l-1.255.132a.977.977 0 0 0-.858.952.76.76 0 0 0 .858.771l1.255-.132a.514.514 0 0 1 .576.519v.219c0 .33-.134.657-.368.91l-1.551 1.651c-.98 1.046-1.536 2.41-1.536 3.777v.138c0 1.424 1.138 2.449 2.554 2.3l2.484-.261a.98.98 0 0 0 .857-.952.762.762 0 0 0-.857-.772Z" fill="#FFBE6F"/><rect x="195" y="101" width="10" height="40" rx="2" fill="#99C1F1"/><rect x="220" y="116" width="10" height="40" rx="2" transform="rotate(90 220 116)" fill="#99C1F1"/><rect x="195" y="98" width="10" height="40" rx="2" fill="#fff"/><rect x="220" y="113" width="10" height="40" rx="2" transform="rotate(90 220 113)" fill="#fff"/><defs><linearGradient id="a" x1="202" y1="20" x2="202" y2="220" gradientUnits="userSpaceOnUse"><stop stop-color="#99C1F1"/><stop offset="1" stop-color="#1A5FB4"/></linearGradient><linearGradient id="b" x1="202" y1="20" x2="202" y2="220" gradientUnits="userSpaceOnUse"><stop stop-color="#99C1F1"/><stop offset="1" stop-color="#1A5FB4"/></linearGradient><linearGradient id="c" x1="202" y1="20" x2="202" y2="220" gradientUnits="userSpaceOnUse"><stop stop-color="#99C1F1"/><stop offset="1" stop-color="#1A5FB4"/></linearGradient><linearGradient id="d" x1="202" y1="20" x2="202" y2="220" gradientUnits="userSpaceOnUse"><stop stop-color="#99C1F1"/><stop offset="1" stop-color="#1A5FB4"/></linearGradient><linearGradient id="e" x1="202" y1="20" x2="202" y2="220" gradientUnits="userSpaceOnUse"><stop stop-color="#99C1F1"/><stop offset="1" stop-color="#1A5FB4"/></linearGradient><linearGradient id="f" x1="202" y1="20" x2="202" y2="220" gradientUnits="userSpaceOnUse"><stop stop-color="#99C1F1"/><stop offset="1" stop-color="#1A5FB4"/></linearGradient><linearGradient id="g" x1="202" y1="20" x2="202" y2="220" gradientUnits="userSpaceOnUse"><stop stop-color="#99C1F1"/><stop offset="1" stop-color="#1A5FB4"/></linearGradient><linearGradient id="h" x1="202" y1="20" x2="202" y2="220" gradientUnits="userSpaceOnUse"><stop stop-color="#99C1F1"/><stop offset="1" stop-color="#1A5FB4"/></linearGradient><linearGradient id="i" x1="202" y1="20" x2="202" y2="220" gradientUnits="userSpaceOnUse"><stop stop-color="#99C1F1"/><stop offset="1" stop-color="#1A5FB4"/></linearGradient><linearGradient id="j" x1="202" y1="20" x2="202" y2="220" gradientUnits="userSpaceOnUse"><stop stop-color="#99C1F1"/><stop offset="1" stop-color="#1A5FB4"/></linearGradient><linearGradient id="k" x1="202" y1="20" x2="202" y2="220" gradientUnits="userSpaceOnUse"><stop stop-color="#99C1F1"/><stop offset="1" stop-color="#1A5FB4"/></linearGradient></defs></svg>