<svg width="492" height="200" fill="none" xmlns="http://www.w3.org/2000/svg"><g opacity=".5"><path d="M470 190c0 5.523-4.477 10-10 10H62c-5.523 0-10-4.477-10-10s4.477-10 10-10h398c5.523 0 10 4.477 10 10Z" fill="url(#a)"/><path d="M492 150c0 5.523-4.477 10-10 10H41c-5.523 0-10-4.477-10-10s4.477-10 10-10h441c5.523 0 10 4.477 10 10Z" fill="url(#b)"/><path d="M444 110c0 5.523-4.477 10-10 10H10c-5.523 0-10-4.477-10-10s4.477-10 10-10h424c5.523 0 10 4.477 10 10Z" fill="url(#c)"/><path d="M478 70c0 5.523-4.477 10-10 10H30c-5.523 0-10-4.477-10-10s4.477-10 10-10h438c5.523 0 10 4.477 10 10Z" fill="url(#d)"/><path d="M446 30c0 5.523-4.477 10-10 10H80c-5.523 0-10-4.477-10-10s4.477-10 10-10h356c5.523 0 10 4.477 10 10Z" fill="url(#e)"/><path d="M415 10H237c0-5.523 4.477-10 10-10h158c5.523 0 10 4.477 10 10Z" fill="url(#f)"/><path d="M415 10H237c0 5.523-4.477 10-10 10h198c-5.523 0-10-4.477-10-10Z" fill="url(#g)"/><path d="M429 40H91c5.523 0 10 4.477 10 10s-4.477 10-10 10h338c-5.523 0-10-4.477-10-10s4.477-10 10-10Z" fill="url(#h)"/><path d="M434 80H58c5.523 0 10 4.477 10 10s-4.477 10-10 10h376c-5.523 0-10-4.477-10-10s4.477-10 10-10Z" fill="url(#i)"/><path d="M423 120H40c5.523 0 10 4.477 10 10s-4.477 10-10 10h383c-5.523 0-10-4.477-10-10s4.477-10 10-10Z" fill="url(#j)"/><path d="M460 160H62c5.523 0 10 4.477 10 10s-4.477 10-10 10h398c-5.523 0-10-4.477-10-10s4.477-10 10-10Z" fill="url(#k)"/></g><path d="M134 136h68a5 5 0 0 0 5-5V57.071a5.003 5.003 0 0 0-1.464-3.535l-16.072-16.072A4.998 4.998 0 0 0 185.929 36H134a5 5 0 0 0-5 5v90a5 5 0 0 0 5 5Z" fill="#fff"/><path d="M186 36h-4l-.668 17.366c-.179 4.657 3.645 8.481 8.302 8.302L207 61v-4h-16a5 5 0 0 1-5-5V36Z" fill="#DEDDDA"/><path d="M382 179h24a2 2 0 0 0 2-2v-25.522a2 2 0 0 0-.586-1.414l-5.478-5.478a2 2 0 0 0-1.414-.586H382a2 2 0 0 0-2 2v31a2 2 0 0 0 2 2Z" fill="#fff"/><path d="M400.65 144h-1.4l-.267 6.942a2 2 0 0 0 2.075 2.075l6.942-.267v-1.4h-6.35a1 1 0 0 1-1-1V144Z" fill="#DEDDDA"/><circle cx="231" cy="159" r="16" fill="#9B6F04"/><circle cx="231" cy="157" r="16" fill="#D49807"/><path d="M232.445 148.032a1.601 1.601 0 0 0-1.129.422l-.324.289-.32-.289c-1.598-1.469-3.774.976-2.129 2.39l2.449 2.184 2.453-2.184c1.11-.953.461-2.773-1-2.812Zm1.055 4.953c-.449 0-.887.055-1.305.156.407.285.789.614 1.129.989.254.281.477.578.672.89a3.481 3.481 0 0 1 3.004 3.465c0 1.945-1.555 3.5-3.5 3.5a3.485 3.485 0 0 1-3.5-3.5c0-.59.145-1.141.398-1.625a2.495 2.495 0 0 0-1.793-.875 5.455 5.455 0 0 0-.605 2.5c0 3.027 2.473 5.5 5.5 5.5s5.5-2.473 5.5-5.5-2.473-5.5-5.5-5.5Z" fill="#FFF9A1"/><path d="M228.5 163.985c.449 0 .887-.055 1.305-.156a6.735 6.735 0 0 1-1.129-.989 6.093 6.093 0 0 1-.672-.89 3.481 3.481 0 0 1-3.004-3.465c0-1.945 1.555-3.5 3.5-3.5s3.5 1.555 3.5 3.5c0 .59-.145 1.141-.398 1.629.015.016.027.031.043.047a2.495 2.495 0 0 0 1.75.824c.386-.75.605-1.602.605-2.5 0-3.027-2.473-5.5-5.5-5.5s-5.5 2.473-5.5 5.5 2.473 5.5 5.5 5.5Z" fill="#FFF9A1"/><circle cx="99" cy="159" r="16" fill="#4E2171"/><circle cx="99" cy="157" r="16" fill="#813D9C"/><path d="M97.5 150a.997.997 0 0 0-.707.293L95.086 152H94c-1.644 0-3 1.355-3 3v7c0 1.645 1.356 3 3 3h10c1.645 0 3-1.355 3-3v-7c0-1.645-1.355-3-3-3h-1.086l-1.707-1.707a.996.996 0 0 0-.707-.293h-3Zm.414 2h2.172l1.707 1.707a.996.996 0 0 0 .707.293h1.5c.57 0 1 .43 1 1v7c0 .57-.43 1-1 1H94c-.57 0-1-.43-1-1v-7c0-.57.43-1 1-1h1.5c.266 0 .52-.105.707-.293L97.914 152Z" fill="#F3BDF4"/><path d="M99 154c-2.2 0-4 1.801-4 4s1.8 4 4 4c2.199 0 4-1.801 4-4s-1.801-4-4-4Zm0 2c1.117 0 2 .883 2 2s-.883 2-2 2-2-.883-2-2 .883-2 2-2Z" fill="#F3BDF4"/><circle cx="165" cy="173" r="16" fill="#9C3A04"/><circle cx="165" cy="171" r="16" fill="#D75B00"/><path d="M169.191 166.047h1.621a2.18 2.18 0 0 1 2.18 2.18v1.64a2.18 2.18 0 0 1-2.18 2.18h-1.621a2.18 2.18 0 0 1-2.179-2.18v-1.64a2.18 2.18 0 0 1 2.179-2.18Z" fill="#FFD9AA"/><path d="M172.988 169.66v6.988a2.386 2.386 0 0 1-2.386 2.387h-8.598a1.003 1.003 0 0 1-1.004-1.004v-.441a3.543 3.543 0 0 1 3.543-3.543h2.348c1.14 0 2.066-.926 2.066-2.063v-2.351l4.031.027Zm-5.996-1.648V164l2.125 2.016-2.125 1.996Zm6 0V164l-1.961 2.016 1.961 1.996Z" fill="#FFD9AA"/><path d="M162.879 177.047h-2.899a.988.988 0 0 1-.98-.981v-.16a3.81 3.81 0 0 1 1.176-2.75l1.804-1.726a3.4 3.4 0 0 0 1.051-2.457v-.254a2.665 2.665 0 0 0-2.672-2.672h-1.464a1 1 0 1 0 0 2h1.464c.368 0 .672.305.672.672v.254c0 .382-.156.746-.429 1.011l-1.809 1.727a5.8 5.8 0 0 0-1.793 4.195v.16a2.972 2.972 0 0 0 2.98 2.981h2.899c.551 0 1-.449 1-1 0-.551-.449-1-1-1Z" fill="#FFD9AA"/><path d="M130 165v4h-4v2h4v4h2v-4h4v-2h-4v-4h-2Zm68 0v4h-4v2h4v4h2v-4h4v-2h-4v-4h-2Z" fill="#62A0EA"/><path d="M130 164v4h-4v2h4v4h2v-4h4v-2h-4v-4h-2Zm68 0v4h-4v2h4v4h2v-4h4v-2h-4v-4h-2Z" fill="#fff"/><rect x="313" y="12" width="40" height="32" rx="4" fill="#1A5FB4"/><path d="M349 44a4 4 0 0 0 4-4V18a2 2 0 0 0-2-2h-15a2 2 0 0 1-1.6-.8l-1.8-2.4a2 2 0 0 0-1.6-.8h-14a4 4 0 0 0-4 4v24a4 4 0 0 0 4 4h32Z" fill="#62A0EA"/><rect x="335" y="56" width="40" height="32" rx="4" fill="#1A5FB4"/><path d="M371 88a4 4 0 0 0 4-4V62a2 2 0 0 0-2-2h-15a2 2 0 0 1-1.6-.8l-1.8-2.4a2 2 0 0 0-1.6-.8h-14a4 4 0 0 0-4 4v24a4 4 0 0 0 4 4h32Z" fill="#62A0EA"/><rect x="357" y="100" width="40" height="32" rx="4" fill="#1A5FB4"/><path d="M393 132a4 4 0 0 0 4-4v-22a2 2 0 0 0-2-2h-15c-.63 0-1.222-.296-1.6-.8l-1.8-2.4c-.378-.504-.97-.8-1.6-.8h-14a4 4 0 0 0-4 4v24a4 4 0 0 0 4 4h32Zm-52-31h2v10h-2z" fill="#62A0EA"/><path fill="#62A0EA" d="M341 109h10v2h-10zm22 36h2v10h-2z"/><path fill="#62A0EA" d="M363 153h10v2h-10zm-44-96h2v10h-2z"/><path fill="#62A0EA" d="M319 65h10v2h-10z"/><path fill="#fff" d="M341 100h2v10h-2z"/><path fill="#fff" d="M341 108h10v2h-10zm22 36h2v10h-2z"/><path fill="#fff" d="M363 152h10v2h-10zm-44-96h2v10h-2z"/><path fill="#fff" d="M319 64h10v2h-10z"/><path d="M380.191 112.047h1.621a2.18 2.18 0 0 1 2.18 2.18v1.64a2.18 2.18 0 0 1-2.18 2.18h-1.621a2.18 2.18 0 0 1-2.179-2.18v-1.64a2.18 2.18 0 0 1 2.179-2.18Z" fill="#1A5FB4"/><path d="M383.988 115.66v6.988a2.386 2.386 0 0 1-2.386 2.387h-8.598a1.003 1.003 0 0 1-1.004-1.004v-.441a3.543 3.543 0 0 1 3.543-3.543h2.348c1.14 0 2.066-.926 2.066-2.063v-2.351l4.031.027Zm-5.996-1.648V110l2.125 2.016-2.125 1.996Zm6 0V110l-1.961 2.016 1.961 1.996Z" fill="#1A5FB4"/><path d="M373.879 123.047h-2.899a.988.988 0 0 1-.98-.981v-.16a3.81 3.81 0 0 1 1.176-2.75l1.804-1.726a3.4 3.4 0 0 0 1.051-2.457v-.254a2.665 2.665 0 0 0-2.672-2.672h-1.464a1 1 0 1 0 0 2h1.464c.368 0 .672.305.672.672v.254c0 .382-.156.746-.429 1.011l-1.809 1.727a5.8 5.8 0 0 0-1.793 4.195v.16a2.972 2.972 0 0 0 2.98 2.981h2.899c.551 0 1-.449 1-1 0-.551-.449-1-1-1Zm-17.434-58.015a1.6 1.6 0 0 0-1.129.422l-.324.289-.32-.29c-1.598-1.468-3.774.977-2.129 2.391l2.449 2.184 2.453-2.184c1.11-.953.461-2.773-1-2.812Zm1.055 4.953c-.449 0-.887.055-1.305.156.407.285.789.613 1.129.988.254.282.477.579.672.891A3.481 3.481 0 0 1 361 75.485c0 1.945-1.555 3.5-3.5 3.5a3.485 3.485 0 0 1-3.5-3.5c0-.59.145-1.14.398-1.625a2.497 2.497 0 0 0-1.793-.875 5.454 5.454 0 0 0-.605 2.5c0 3.027 2.473 5.5 5.5 5.5s5.5-2.473 5.5-5.5-2.473-5.5-5.5-5.5Z" fill="#1A5FB4"/><path d="M352.5 80.985a5.53 5.53 0 0 0 1.305-.156 6.74 6.74 0 0 1-1.129-.988 6.093 6.093 0 0 1-.672-.891A3.481 3.481 0 0 1 349 75.485c0-1.945 1.555-3.5 3.5-3.5s3.5 1.555 3.5 3.5c0 .59-.145 1.14-.398 1.629.015.015.027.031.043.047a2.497 2.497 0 0 0 1.75.824c.386-.75.605-1.602.605-2.5 0-3.027-2.473-5.5-5.5-5.5s-5.5 2.473-5.5 5.5 2.473 5.5 5.5 5.5ZM331.5 22a.998.998 0 0 0-.707.293L329.086 24H328c-1.645 0-3 1.355-3 3v7c0 1.645 1.355 3 3 3h10c1.645 0 3-1.355 3-3v-7c0-1.645-1.355-3-3-3h-1.086l-1.707-1.707A.998.998 0 0 0 334.5 22h-3Zm.414 2h2.172l1.707 1.707a.998.998 0 0 0 .707.293h1.5c.57 0 1 .43 1 1v7c0 .57-.43 1-1 1h-10c-.57 0-1-.43-1-1v-7c0-.57.43-1 1-1h1.5c.266 0 .52-.105.707-.293L331.914 24Z" fill="#1A5FB4"/><path d="M333 26c-2.199 0-4 1.8-4 4s1.801 4 4 4 4-1.8 4-4-1.801-4-4-4Zm0 2c1.117 0 2 .883 2 2s-.883 2-2 2-2-.883-2-2 .883-2 2-2Z" fill="#1A5FB4"/><path d="M252 90a3 3 0 0 1 3-3h22v16h-22a3 3 0 0 1-3-3V90Zm48 6.055c0 .598-.268 1.165-.729 1.545l-19 15.628c-1.305 1.074-3.271.146-3.271-1.544V78.966c0-1.626 1.838-2.572 3.162-1.627l19 13.563A2 2 0 0 1 300 92.53v3.525Z" fill="#62A0EA"/><path d="M252 87a3 3 0 0 1 3-3h22v16h-22a3 3 0 0 1-3-3V87Zm47.146 3.461a2 2 0 0 1 0 3.078l-18.869 15.66c-1.303 1.081-3.277.154-3.277-1.539V76.34c0-1.693 1.974-2.62 3.277-1.539l18.869 15.66Z" fill="#fff"/><defs><linearGradient id="a" x1="182" y1="0" x2="182" y2="200" gradientUnits="userSpaceOnUse"><stop stop-color="#62A0EA"/><stop offset="1" stop-color="#1C71D8"/></linearGradient><linearGradient id="b" x1="182" y1="0" x2="182" y2="200" gradientUnits="userSpaceOnUse"><stop stop-color="#62A0EA"/><stop offset="1" stop-color="#1C71D8"/></linearGradient><linearGradient id="c" x1="182" y1="0" x2="182" y2="200" gradientUnits="userSpaceOnUse"><stop stop-color="#62A0EA"/><stop offset="1" stop-color="#1C71D8"/></linearGradient><linearGradient id="d" x1="182" y1="0" x2="182" y2="200" gradientUnits="userSpaceOnUse"><stop stop-color="#62A0EA"/><stop offset="1" stop-color="#1C71D8"/></linearGradient><linearGradient id="e" x1="182" y1="0" x2="182" y2="200" gradientUnits="userSpaceOnUse"><stop stop-color="#62A0EA"/><stop offset="1" stop-color="#1C71D8"/></linearGradient><linearGradient id="f" x1="182" y1="0" x2="182" y2="200" gradientUnits="userSpaceOnUse"><stop stop-color="#62A0EA"/><stop offset="1" stop-color="#1C71D8"/></linearGradient><linearGradient id="g" x1="182" y1="0" x2="182" y2="200" gradientUnits="userSpaceOnUse"><stop stop-color="#62A0EA"/><stop offset="1" stop-color="#1C71D8"/></linearGradient><linearGradient id="h" x1="182" y1="0" x2="182" y2="200" gradientUnits="userSpaceOnUse"><stop stop-color="#62A0EA"/><stop offset="1" stop-color="#1C71D8"/></linearGradient><linearGradient id="i" x1="182" y1="0" x2="182" y2="200" gradientUnits="userSpaceOnUse"><stop stop-color="#62A0EA"/><stop offset="1" stop-color="#1C71D8"/></linearGradient><linearGradient id="j" x1="182" y1="0" x2="182" y2="200" gradientUnits="userSpaceOnUse"><stop stop-color="#62A0EA"/><stop offset="1" stop-color="#1C71D8"/></linearGradient><linearGradient id="k" x1="182" y1="0" x2="182" y2="200" gradientUnits="userSpaceOnUse"><stop stop-color="#62A0EA"/><stop offset="1" stop-color="#1C71D8"/></linearGradient></defs></svg>