<svg height="16" xmlns="http://www.w3.org/2000/svg" width="16"><path d="M205.188 490c-1.206 0-2.188 1.018-2.188 2.219v11.562c0 1.201.982 2.219 2.188 2.219h9.625c1.205 0 2.187-1.018 2.187-2.219V492.22c0-1.201-.982-2.219-2.188-2.219h-9.625zm-.188 3h10v11h-10v-11zm1 1v4h8.031v-4H206zm2.344 1.438a.5.5 0 0 1 .062 0 .5.5 0 0 1 .594.5V496h2v-.063a.5.5 0 1 1 1 0V496c0 .545-.455 1-1 1h-2c-.545 0-1-.455-1-1v-.063a.5.5 0 0 1 .344-.5zM206.03 499v4h8.031v-4h-8.03zm2.313 1.438a.5.5 0 0 1 .062 0 .5.5 0 0 1 .594.5V501h2v-.063a.5.5 0 1 1 1 0V501c0 .545-.455 1-1 1h-2c-.545 0-1-.455-1-1v-.063a.5.5 0 0 1 .344-.5z" style="color:#000;fill:#bebebe;fill-opacity:1;fill-rule:evenodd;stroke:none;stroke-width:1;marker:none;visibility:visible;display:inline;overflow:visible;enable-background:accumulate" transform="translate(-202 -490)"/></svg>