<svg width="16" height="16" fill="none" xmlns="http://www.w3.org/2000/svg"><g clip-path="url(#a)"><path fill-rule="evenodd" clip-rule="evenodd" d="M0 2a2 2 0 0 1 2-2h12a2 2 0 0 1 2 2v12a2 2 0 0 1-2 2H2a2 2 0 0 1-2-2V2Zm6.407 10.009a.501.501 0 0 0-.063 0 .5.5 0 0 0-.343.5v.062c0 .546.454 1 1 1h2c.545 0 1-.454 1-1v-.062a.498.498 0 0 0-.693-.469.5.5 0 0 0-.307.469v.062H7v-.062a.5.5 0 0 0-.594-.5ZM2 3a1 1 0 0 1 1-1h10a1 1 0 0 1 1 1v1a1 1 0 0 0-1-1H3a1 1 0 0 0-1 1V3Zm1 2a1 1 0 0 0-1 1v1a1 1 0 0 1 1-1h10a1 1 0 0 1 1 1V6a1 1 0 0 0-1-1H3Zm0 3a1 1 0 0 0-1 1h12a1 1 0 0 0-1-1H3Z" fill="#000"/></g><defs><clipPath id="a"><path fill="#fff" d="M0 0h16v16H0z"/></clipPath></defs></svg>