<svg width="128" height="128" fill="none" xmlns="http://www.w3.org/2000/svg"><path d="M99.227 62H28.773C23.928 62 20 65.59 20 70.018v41.964c0 4.428 3.928 8.018 8.773 8.018h70.454c4.845 0 8.773-3.59 8.773-8.018V70.018C108 65.59 104.072 62 99.227 62Z" fill="url(#a)"/><path d="M99.227 8H28.773C23.928 8 20 11.59 20 16.018v91.964c0 4.428 3.928 8.018 8.773 8.018h70.454c4.845 0 8.773-3.59 8.773-8.018V16.018C108 11.59 104.072 8 99.227 8Z" fill="#F6F5F4"/><path d="M100 14H28a4 4 0 0 0-4 4.002v89.996A4 4 0 0 0 28 112h72c2.209 0 4-1.792 4-4.002V18.002A4.001 4.001 0 0 0 100 14Z" fill="#1A5FB4"/><path d="M100 12H28a4 4 0 0 0-4 4.002v89.996A4 4 0 0 0 28 110h72c2.209 0 4-1.792 4-4.002V16.002A4.001 4.001 0 0 0 100 12Z" fill="#3584E4"/><path d="M104 44H24v2h80v-2Zm0 32H24v2h80v-2Z" fill="#1C71D8"/><path opacity=".5" d="M104 16 24 47.104V106l80-31.104V16Z" fill="#C01C28"/><path d="M55 24h18c1.662 0 3 1 3 3v5h-3.969L72 28H56l.031 4H52v-5c0-1.662 1.338-3 3-3Z" fill="url(#b)"/><path opacity=".1" d="M74.5 30h-21a1.5 1.5 0 0 0-1.5 1.5v1a1.5 1.5 0 0 0 1.5 1.5h21a1.5 1.5 0 0 0 1.5-1.5v-1a1.5 1.5 0 0 0-1.5-1.5Z" fill="#000"/><path d="M55 28c-1.662 0-3 1.338-3 3v1h4v-2h16v2h4v-1c0-1.662-1.338-3-3-3H55Z" fill="url(#c)"/><path opacity=".1" d="M72 30H56v2h16v-2Z" fill="#000"/><path d="M55 56h18c1.662 0 3 1 3 3v5h-3.969L72 60H56l.031 4H52v-5c0-1.662 1.338-3 3-3Z" fill="url(#d)"/><path opacity=".1" d="M74.5 62h-21a1.5 1.5 0 0 0-1.5 1.5v1a1.5 1.5 0 0 0 1.5 1.5h21a1.5 1.5 0 0 0 1.5-1.5v-1a1.5 1.5 0 0 0-1.5-1.5Z" fill="#000"/><path d="M55 60c-1.662 0-3 1.338-3 3v1h4v-2h16v2h4v-1c0-1.662-1.338-3-3-3H55Z" fill="url(#e)"/><path opacity=".1" d="M72 62H56v2h16v-2Z" fill="#000"/><path d="M55 88h18c1.662 0 3 1 3 3v5h-3.969L72 92H56l.031 4H52v-5c0-1.662 1.338-3 3-3Z" fill="url(#f)"/><path opacity=".1" d="M74.5 94h-21a1.5 1.5 0 0 0-1.5 1.5v1a1.5 1.5 0 0 0 1.5 1.5h21a1.5 1.5 0 0 0 1.5-1.5v-1a1.5 1.5 0 0 0-1.5-1.5Z" fill="#000"/><path d="M55 92c-1.662 0-3 1.338-3 3v1h4v-2h16v2h4v-1c0-1.662-1.338-3-3-3H55Z" fill="url(#g)"/><path opacity=".1" d="M72 94H56v2h16v-2Z" fill="#000"/><defs><linearGradient id="a" x1="20" y1="66" x2="108" y2="66" gradientUnits="userSpaceOnUse"><stop stop-color="#DEDDDA"/><stop offset=".045" stop-color="#EEEEEC"/><stop offset=".091" stop-color="#DEDDDA"/><stop offset=".909" stop-color="#DEDDDA"/><stop offset=".955" stop-color="#EEEEEC"/><stop offset="1" stop-color="#C0BFBC"/></linearGradient><linearGradient id="b" x1="52" y1="44" x2="76" y2="44" gradientUnits="userSpaceOnUse"><stop stop-color="#DEDDDA"/><stop offset=".045" stop-color="#EEEEEC"/><stop offset=".091" stop-color="#DEDDDA"/><stop offset=".909" stop-color="#DEDDDA"/><stop offset=".955" stop-color="#EEEEEC"/><stop offset="1" stop-color="#C0BFBC"/></linearGradient><linearGradient id="c" x1="65" y1="32" x2="65" y2="28" gradientUnits="userSpaceOnUse"><stop stop-color="#9A9996"/><stop offset="1" stop-color="#C0BFBC"/></linearGradient><linearGradient id="d" x1="52" y1="76" x2="76" y2="76" gradientUnits="userSpaceOnUse"><stop stop-color="#DEDDDA"/><stop offset=".045" stop-color="#EEEEEC"/><stop offset=".091" stop-color="#DEDDDA"/><stop offset=".909" stop-color="#DEDDDA"/><stop offset=".955" stop-color="#EEEEEC"/><stop offset="1" stop-color="#C0BFBC"/></linearGradient><linearGradient id="e" x1="65" y1="64" x2="65" y2="60" gradientUnits="userSpaceOnUse"><stop stop-color="#9A9996"/><stop offset="1" stop-color="#C0BFBC"/></linearGradient><linearGradient id="f" x1="52" y1="108" x2="76" y2="108" gradientUnits="userSpaceOnUse"><stop stop-color="#DEDDDA"/><stop offset=".045" stop-color="#EEEEEC"/><stop offset=".091" stop-color="#DEDDDA"/><stop offset=".909" stop-color="#DEDDDA"/><stop offset=".955" stop-color="#EEEEEC"/><stop offset="1" stop-color="#C0BFBC"/></linearGradient><linearGradient id="g" x1="65" y1="96" x2="65" y2="92" gradientUnits="userSpaceOnUse"><stop stop-color="#9A9996"/><stop offset="1" stop-color="#C0BFBC"/></linearGradient></defs></svg>