<svg height="128" width="128" xmlns="http://www.w3.org/2000/svg" xmlns:xlink="http://www.w3.org/1999/xlink"><defs><mask id="H"><g filter="url(#a)"><path fill-opacity=".5" d="M-12.8-12.8h153.6v153.6H-12.8z"/></g></mask><mask id="I"><g filter="url(#a)"><path fill-opacity=".1" d="M-12.8-12.8h153.6v153.6H-12.8z"/></g></mask><mask id="J"><g filter="url(#a)"><path fill-opacity=".1" d="M-12.8-12.8h153.6v153.6H-12.8z"/></g></mask><mask id="K"><g filter="url(#a)"><path fill-opacity=".1" d="M-12.8-12.8h153.6v153.6H-12.8z"/></g></mask><mask id="L"><g filter="url(#a)"><path fill-opacity=".1" d="M-12.8-12.8h153.6v153.6H-12.8z"/></g></mask><mask id="M"><g filter="url(#a)"><path fill-opacity=".1" d="M-12.8-12.8h153.6v153.6H-12.8z"/></g></mask><mask id="N"><g filter="url(#a)"><path fill-opacity=".1" d="M-12.8-12.8h153.6v153.6H-12.8z"/></g></mask><mask id="e"><g filter="url(#a)"><path fill-opacity=".5" d="M-46.592-46.592h221.184v221.184H-46.592z"/></g></mask><mask id="h"><g filter="url(#a)"><path fill-opacity=".1" d="M-46.592-46.592h221.184v221.184H-46.592z"/></g></mask><mask id="k"><g filter="url(#a)"><path fill-opacity=".1" d="M-46.592-46.592h221.184v221.184H-46.592z"/></g></mask><mask id="n"><g filter="url(#a)"><path fill-opacity=".1" d="M-46.592-46.592h221.184v221.184H-46.592z"/></g></mask><mask id="q"><g filter="url(#a)"><path fill-opacity=".1" d="M-46.592-46.592h221.184v221.184H-46.592z"/></g></mask><mask id="t"><g filter="url(#a)"><path fill-opacity=".1" d="M-46.592-46.592h221.184v221.184H-46.592z"/></g></mask><mask id="w"><g filter="url(#a)"><path fill-opacity=".1" d="M-46.592-46.592h221.184v221.184H-46.592z"/></g></mask><mask id="P"><g filter="url(#a)"><g clip-path="url(#b)" filter="url(#a)"><g clip-path="url(#c)"><path d="M99.227 62H28.773C23.926 62 20 65.59 20 70.02v41.96c0 4.43 3.926 8.02 8.773 8.02h70.454c4.843 0 8.773-3.59 8.773-8.02V70.02c0-4.43-3.93-8.02-8.773-8.02zm0 0" fill="url(#d)"/><path d="M99.227 8H28.773C23.926 8 20 11.59 20 16.02v91.96c0 4.43 3.926 8.02 8.773 8.02h70.454c4.843 0 8.773-3.59 8.773-8.02V16.02c0-4.43-3.93-8.02-8.773-8.02zm0 0" fill="#f6f5f4"/><path d="M100 14H28c-2.21 0-4 1.793-4 4.004v89.992A4.002 4.002 0 0 0 28 112h72c2.21 0 4-1.793 4-4.004V18.004A4.002 4.002 0 0 0 100 14zm0 0" fill="#1a5fb4"/><path d="M100 12H28c-2.21 0-4 1.793-4 4.004v89.992A4.002 4.002 0 0 0 28 110h72c2.21 0 4-1.793 4-4.004V16.004A4.002 4.002 0 0 0 100 12zm0 0" fill="#3584e4"/><path d="M104 44H24v2h80zm0 32H24v2h80zm0 0" fill="#1c71d8"/><g mask="url(#e)"><use xlink:href="#f"/></g><path d="M55 24h18c1.66 0 3 1 3 3v5h-3.969L72 28H56l.031 4H52v-5c0-1.66 1.34-3 3-3zm0 0" fill="url(#g)"/><g mask="url(#h)"><use xlink:href="#i"/></g><path d="M55 28c-1.66 0-3 1.34-3 3v1h4v-2h16v2h4v-1c0-1.66-1.34-3-3-3zm0 0" fill="url(#j)"/><g mask="url(#k)"><use xlink:href="#l"/></g><path d="M55 56h18c1.66 0 3 1 3 3v5h-3.969L72 60H56l.031 4H52v-5c0-1.66 1.34-3 3-3zm0 0" fill="url(#m)"/><g mask="url(#n)"><use xlink:href="#o"/></g><path d="M55 60c-1.66 0-3 1.34-3 3v1h4v-2h16v2h4v-1c0-1.66-1.34-3-3-3zm0 0" fill="url(#p)"/><g mask="url(#q)"><use xlink:href="#r"/></g><path d="M55 88h18c1.66 0 3 1 3 3v5h-3.969L72 92H56l.031 4H52v-5c0-1.66 1.34-3 3-3zm0 0" fill="url(#s)"/><g mask="url(#t)"><use xlink:href="#u"/></g><path d="M55 92c-1.66 0-3 1.34-3 3v1h4v-2h16v2h4v-1c0-1.66-1.34-3-3-3zm0 0" fill="url(#v)"/><g mask="url(#w)"><use xlink:href="#x"/></g></g></g></g></mask><mask id="R"><g filter="url(#a)"><path fill-opacity=".8" d="M-28.16-28.16h184.32v184.32H-28.16z"/></g></mask><clipPath id="A"><path d="M0 0h128v128H0z"/></clipPath><clipPath id="B"><path d="M0 0h128v128H0z"/></clipPath><clipPath id="C"><path d="M0 0h128v128H0z"/></clipPath><clipPath id="D"><path d="M0 0h128v128H0z"/></clipPath><clipPath id="E"><path d="M0 0h128v128H0z"/></clipPath><clipPath id="F"><path d="M0 0h128v128H0z"/></clipPath><clipPath id="G"><path d="M0 0h128v128H0z"/></clipPath><clipPath id="c"><path d="M0 0h128v128H0z"/></clipPath><clipPath id="b"><path d="M0 0h128v128H0z"/></clipPath><clipPath id="Q"><path d="M0 0h128v128H0z"/></clipPath><clipPath id="O"><path d="M0 0h128v128H0z"/></clipPath><linearGradient id="y" gradientUnits="userSpaceOnUse"><stop offset="0" stop-color="#deddda"/><stop offset=".045" stop-color="#eeeeec"/><stop offset=".091" stop-color="#deddda"/><stop offset=".909" stop-color="#deddda"/><stop offset=".955" stop-color="#eeeeec"/><stop offset="1" stop-color="#c0bfbc"/></linearGradient><linearGradient id="d" x1="20" x2="108" xlink:href="#y" y1="66" y2="66"/><linearGradient id="g" x1="52" x2="76" xlink:href="#y" y1="44" y2="44"/><linearGradient id="z" gradientUnits="userSpaceOnUse"><stop offset="0" stop-color="#9a9996"/><stop offset="1" stop-color="#c0bfbc"/></linearGradient><linearGradient id="j" x1="65" x2="65" xlink:href="#z" y1="32" y2="28"/><linearGradient id="m" x1="52" x2="76" xlink:href="#y" y1="76" y2="76"/><linearGradient id="p" x1="65" x2="65" xlink:href="#z" y1="64" y2="60"/><linearGradient id="s" x1="52" x2="76" xlink:href="#y" y1="108" y2="108"/><linearGradient id="v" x1="65" x2="65" xlink:href="#z" y1="96" y2="92"/><linearGradient id="S" gradientTransform="matrix(0 .37 -.98462 0 295.385 -30.36)" gradientUnits="userSpaceOnUse" x1="300" x2="428" y1="235" y2="235"><stop offset="0" stop-color="#f9f06b"/><stop offset="1" stop-color="#f5c211"/></linearGradient><g id="f" clip-path="url(#A)"><path d="M104 16 24 47.105V106l80-31.105zm0 0" fill="#c01c28"/></g><g id="i" clip-path="url(#B)"><path d="M74.5 30h-21a1.5 1.5 0 0 0-1.5 1.5v1a1.5 1.5 0 0 0 1.5 1.5h21a1.5 1.5 0 0 0 1.5-1.5v-1a1.5 1.5 0 0 0-1.5-1.5zm0 0"/></g><g id="l" clip-path="url(#C)"><path d="M72 30H56v2h16zm0 0"/></g><g id="o" clip-path="url(#D)"><path d="M74.5 62h-21a1.5 1.5 0 0 0-1.5 1.5v1a1.5 1.5 0 0 0 1.5 1.5h21a1.5 1.5 0 0 0 1.5-1.5v-1a1.5 1.5 0 0 0-1.5-1.5zm0 0"/></g><g id="r" clip-path="url(#E)"><path d="M72 62H56v2h16zm0 0"/></g><g id="u" clip-path="url(#F)"><path d="M74.5 94h-21a1.5 1.5 0 0 0-1.5 1.5v1a1.5 1.5 0 0 0 1.5 1.5h21a1.5 1.5 0 0 0 1.5-1.5v-1a1.5 1.5 0 0 0-1.5-1.5zm0 0"/></g><g id="x" clip-path="url(#G)"><path d="M72 94H56v2h16zm0 0"/></g><filter id="a" height="100%" width="100%" x="0%" y="0%"><feColorMatrix color-interpolation-filters="sRGB" values="0 0 0 0 1 0 0 0 0 1 0 0 0 0 1 0 0 0 1 0"/></filter></defs><path d="M99.227 62H28.773C23.926 62 20 65.59 20 70.02v41.96c0 4.43 3.926 8.02 8.773 8.02h70.454c4.843 0 8.773-3.59 8.773-8.02V70.02c0-4.43-3.93-8.02-8.773-8.02zm0 0" fill="url(#d)"/><path d="M99.227 8H28.773C23.926 8 20 11.59 20 16.02v91.96c0 4.43 3.926 8.02 8.773 8.02h70.454c4.843 0 8.773-3.59 8.773-8.02V16.02c0-4.43-3.93-8.02-8.773-8.02zm0 0" fill="#f6f5f4"/><path d="M100 14H28c-2.21 0-4 1.793-4 4.004v89.992A4.002 4.002 0 0 0 28 112h72c2.21 0 4-1.793 4-4.004V18.004A4.002 4.002 0 0 0 100 14zm0 0" fill="#1a5fb4"/><path d="M100 12H28c-2.21 0-4 1.793-4 4.004v89.992A4.002 4.002 0 0 0 28 110h72c2.21 0 4-1.793 4-4.004V16.004A4.002 4.002 0 0 0 100 12zm0 0" fill="#3584e4"/><path d="M104 44H24v2h80zm0 32H24v2h80zm0 0" fill="#1c71d8"/><g mask="url(#H)"><use xlink:href="#f"/></g><path d="M55 24h18c1.66 0 3 1 3 3v5h-3.969L72 28H56l.031 4H52v-5c0-1.66 1.34-3 3-3zm0 0" fill="url(#g)"/><g mask="url(#I)"><use xlink:href="#i"/></g><path d="M55 28c-1.66 0-3 1.34-3 3v1h4v-2h16v2h4v-1c0-1.66-1.34-3-3-3zm0 0" fill="url(#j)"/><g mask="url(#J)"><use xlink:href="#l"/></g><path d="M55 56h18c1.66 0 3 1 3 3v5h-3.969L72 60H56l.031 4H52v-5c0-1.66 1.34-3 3-3zm0 0" fill="url(#m)"/><g mask="url(#K)"><use xlink:href="#o"/></g><path d="M55 60c-1.66 0-3 1.34-3 3v1h4v-2h16v2h4v-1c0-1.66-1.34-3-3-3zm0 0" fill="url(#p)"/><g mask="url(#L)"><use xlink:href="#r"/></g><path d="M55 88h18c1.66 0 3 1 3 3v5h-3.969L72 92H56l.031 4H52v-5c0-1.66 1.34-3 3-3zm0 0" fill="url(#s)"/><g mask="url(#M)"><use xlink:href="#u"/></g><path d="M55 92c-1.66 0-3 1.34-3 3v1h4v-2h16v2h4v-1c0-1.66-1.34-3-3-3zm0 0" fill="url(#v)"/><g mask="url(#N)"><use xlink:href="#x"/></g><g clip-path="url(#O)" mask="url(#P)"><g clip-path="url(#Q)" mask="url(#R)"><path d="M128 80.64V128H0V80.64zm0 0" fill="url(#S)"/><path d="M13.309 80.64 60.664 128H81.88L34.52 80.64zm42.421 0L103.094 128h21.215L76.945 80.64zm42.43 0L128 110.48V89.27l-8.629-8.63zM0 88.548v21.215L18.238 128h21.215zm0 0"/></g></g></svg>