<svg height="128" width="128" xmlns:xlink="http://www.w3.org/1999/xlink" xmlns="http://www.w3.org/2000/svg"><defs><linearGradient id="a" gradientUnits="userSpaceOnUse" x1="20" x2="108" y1="115" y2="115"><stop offset=".844" stop-color="#e01b24"/><stop offset=".948" stop-color="#f66151"/><stop offset="1" stop-color="#ed333b"/></linearGradient><linearGradient id="b" gradientUnits="userSpaceOnUse" x1="20" x2="108" y1="115" y2="115"><stop offset=".844" stop-color="#ff7800"/><stop offset=".948" stop-color="#ffbe6f"/><stop offset="1" stop-color="#ffa348"/></linearGradient><linearGradient id="c" gradientUnits="userSpaceOnUse" x1="20" x2="108" y1="115" y2="115"><stop offset=".844" stop-color="#f5c211"/><stop offset=".948" stop-color="#f9f06b"/><stop offset="1" stop-color="#f8e45c"/></linearGradient><linearGradient id="d" gradientUnits="userSpaceOnUse" x1="20" x2="108" y1="116" y2="116"><stop offset=".844" stop-color="#33d17a"/><stop offset=".948" stop-color="#8ff0a4"/><stop offset="1" stop-color="#57e389"/></linearGradient><linearGradient id="e" gradientUnits="userSpaceOnUse" x1="20" x2="108" y1="116" y2="116"><stop offset=".844" stop-color="#c061cb"/><stop offset=".948" stop-color="#dc8add"/><stop offset="1" stop-color="#c061cb"/></linearGradient><linearGradient id="f" gradientUnits="userSpaceOnUse" x1="52" x2="76" y1="75" y2="75"><stop offset="0" stop-color="#deddda"/><stop offset=".045" stop-color="#eeeeec"/><stop offset=".091" stop-color="#deddda"/><stop offset=".909" stop-color="#deddda"/><stop offset=".955" stop-color="#eeeeec"/><stop offset="1" stop-color="#c0bfbc"/></linearGradient><linearGradient id="g" gradientUnits="userSpaceOnUse" x1="65" x2="65" y1="87" y2="91"><stop offset="0" stop-color="#9a9996"/><stop offset="1" stop-color="#c0bfbc"/></linearGradient><linearGradient id="w" gradientTransform="matrix(0 .37 -.98462 0 295.385 -30.36)" gradientUnits="userSpaceOnUse" x1="300" x2="428" y1="235" y2="235"><stop offset="0" stop-color="#f9f06b"/><stop offset="1" stop-color="#f5c211"/></linearGradient><linearGradient xlink:href="#a" id="n" gradientUnits="userSpaceOnUse" x1="20" y1="115" x2="108" y2="115"/><linearGradient xlink:href="#b" id="o" gradientUnits="userSpaceOnUse" x1="20" y1="115" x2="108" y2="115"/><linearGradient xlink:href="#c" id="p" gradientUnits="userSpaceOnUse" x1="20" y1="115" x2="108" y2="115"/><linearGradient xlink:href="#d" id="q" gradientUnits="userSpaceOnUse" x1="20" y1="116" x2="108" y2="116"/><linearGradient xlink:href="#e" id="r" gradientUnits="userSpaceOnUse" x1="20" y1="116" x2="108" y2="116"/><linearGradient xlink:href="#f" id="y" gradientUnits="userSpaceOnUse" x1="52" y1="75" x2="76" y2="75"/><linearGradient xlink:href="#g" id="z" gradientUnits="userSpaceOnUse" x1="65" y1="87" x2="65" y2="91"/><clipPath id="m"><path d="M0 0h128v128H0z"/></clipPath><clipPath id="j"><path d="M0 0h128v128H0z"/></clipPath><clipPath id="i"><path d="M0 0h128v128H0z"/></clipPath><clipPath id="u"><path d="M0 0h128v128H0z"/></clipPath><clipPath id="s"><path d="M0 0h128v128H0z"/></clipPath><mask id="x"><g filter="url(#h)"><path fill-opacity=".1" d="M-12.8-12.8h153.6v153.6H-12.8z"/></g></mask><mask id="k"><g filter="url(#h)"><path fill-opacity=".1" d="M-46.592-46.592h221.184v221.184H-46.592z"/></g></mask><mask id="t"><g filter="url(#h)"><g clip-path="url(#i)" filter="url(#h)"><g clip-path="url(#j)"><path d="M20 12h88a8 8 0 0 1 8 8v88a8 8 0 0 1-8 8H20a8 8 0 0 1-8-8V20a8 8 0 0 1 8-8zm0 0" fill="#1a5fb4"/><path d="M20 24c0-2.21 1.79-4 4-4h80c2.21 0 4 1.79 4 4v91H20Zm0 0" fill="url(#a)"/><path d="M20 33c0-2.21 1.79-4 4-4h80c2.21 0 4 1.79 4 4v82H20Zm0 0" fill="url(#b)"/><path d="M20 42c0-2.21 1.79-4 4-4h80c2.21 0 4 1.79 4 4v73H20Zm0 0" fill="url(#c)"/><path d="M20 51c0-2.21 1.79-4 4-4h80c2.21 0 4 1.79 4 4v65H20Zm0 0" fill="url(#d)"/><path d="M20 60c0-2.21 1.79-4 4-4h80c2.21 0 4 1.79 4 4v56H20Zm0 0" fill="url(#e)"/><path d="M20 65h88a8 8 0 0 1 8 8v35a8 8 0 0 1-8 8H20a8 8 0 0 1-8-8V73a8 8 0 0 1 8-8zm0 0" fill="#1c71d8"/><path d="M20 69h88a8 8 0 0 1 8 8v31a8 8 0 0 1-8 8H20a8 8 0 0 1-8-8V77a8 8 0 0 1 8-8zm0 0" fill="#3584e4"/><g mask="url(#k)"><use xlink:href="#l"/></g><path d="M55 95h18c1.66 0 3-1 3-3v-5h-3.969L72 91H56v-4h-4v5c0 1.66 1.34 3 3 3zm0 0" fill="url(#f)"/><path d="M55 91c-1.66 0-3-1.34-3-3v-1h4v2h16v-2h4v1c0 1.66-1.34 3-3 3zm0 0" fill="url(#g)"/></g></g></g></mask><mask id="v"><g filter="url(#h)"><path fill-opacity=".8" d="M-28.16-28.16h184.32v184.32H-28.16z"/></g></mask><filter id="h" height="1" width="1" x="0" y="0"><feColorMatrix color-interpolation-filters="sRGB" values="0 0 0 0 1 0 0 0 0 1 0 0 0 0 1 0 0 0 1 0"/></filter><g id="l" clip-path="url(#m)"><path d="M52 90h24v5a3 3 0 0 1-3 3H55a3 3 0 0 1-3-3zm0 0"/></g></defs><path d="M20 12h88a8 8 0 0 1 8 8v88a8 8 0 0 1-8 8H20a8 8 0 0 1-8-8V20a8 8 0 0 1 8-8zm0 0" fill="#1a5fb4"/><path d="M20 24c0-2.21 1.79-4 4-4h80c2.21 0 4 1.79 4 4v91H20Zm0 0" fill="url(#a)" style="fill:url(#n)"/><path d="M20 33c0-2.21 1.79-4 4-4h80c2.21 0 4 1.79 4 4v82H20Zm0 0" fill="url(#b)" style="fill:url(#o)"/><path d="M20 42c0-2.21 1.79-4 4-4h80c2.21 0 4 1.79 4 4v73H20Zm0 0" fill="url(#c)" style="fill:url(#p)"/><path d="M20 51c0-2.21 1.79-4 4-4h80c2.21 0 4 1.79 4 4v65H20Zm0 0" fill="url(#d)" style="fill:url(#q)"/><path d="M20 60c0-2.21 1.79-4 4-4h80c2.21 0 4 1.79 4 4v56H20Zm0 0" fill="url(#e)" style="fill:url(#r)"/><path d="M20 65h88a8 8 0 0 1 8 8v35a8 8 0 0 1-8 8H20a8 8 0 0 1-8-8V73a8 8 0 0 1 8-8zm0 0" fill="#1c71d8"/><path d="M20 69h88a8 8 0 0 1 8 8v31a8 8 0 0 1-8 8H20a8 8 0 0 1-8-8V77a8 8 0 0 1 8-8zm0 0" fill="#3584e4"/><g clip-path="url(#s)" mask="url(#t)"><g clip-path="url(#u)" mask="url(#v)"><path d="M128 80.64V128H0V80.64Zm0 0" fill="url(#w)" style="fill:url(#w)"/><path d="M13.309 80.64 60.664 128H81.88L34.52 80.64Zm42.421 0L103.094 128h21.215L76.945 80.64Zm42.43 0L128 110.48V89.27l-8.629-8.63zM0 88.548v21.215L18.238 128h21.215zm0 0"/></g></g><g mask="url(#x)"><use xlink:href="#l"/></g><path d="M55 95h18c1.66 0 3-1 3-3v-5h-3.969L72 91H56v-4h-4v5c0 1.66 1.34 3 3 3zm0 0" fill="url(#f)" style="fill:url(#y)"/><path d="M55 91c-1.66 0-3-1.34-3-3v-1h4v2h16v-2h4v1c0 1.66-1.34 3-3 3zm0 0" fill="url(#g)" style="fill:url(#z)"/></svg>