<svg width="128" height="128" fill="none" xmlns="http://www.w3.org/2000/svg"><rect x="12" y="12" width="104" height="104" rx="8" fill="#1A5FB4"/><path d="M20 24a4 4 0 0 1 4-4h80a4 4 0 0 1 4 4v91H20V24Z" fill="url(#a)"/><path d="M20 33a4 4 0 0 1 4-4h80a4 4 0 0 1 4 4v82H20V33Z" fill="url(#b)"/><path d="M20 42a4 4 0 0 1 4-4h80a4 4 0 0 1 4 4v73H20V42Z" fill="url(#c)"/><path d="M20 51a4 4 0 0 1 4-4h80a4 4 0 0 1 4 4v65H20V51Z" fill="url(#d)"/><path d="M20 60a4 4 0 0 1 4-4h80a4 4 0 0 1 4 4v56H20V60Z" fill="url(#e)"/><rect x="12" y="65" width="104" height="51" rx="8" fill="#1C71D8"/><rect x="12" y="69" width="104" height="47" rx="8" fill="#3584E4"/><path opacity=".1" d="M52 90h24v5a3 3 0 0 1-3 3H55a3 3 0 0 1-3-3v-5Z" fill="#000"/><path d="M55 95h18c1.662 0 3-1 3-3v-5h-3.969L72 91H56v-4h-4v5c0 1.662 1.338 3 3 3Z" fill="url(#f)"/><path d="M55 91c-1.662 0-3-1.338-3-3v-1h4v2h16v-2h4v1c0 1.662-1.338 3-3 3H55Z" fill="url(#g)"/><defs><linearGradient id="a" x1="20" y1="115" x2="108" y2="115" gradientUnits="userSpaceOnUse"><stop offset=".844" stop-color="#E01B24"/><stop offset=".948" stop-color="#F66151"/><stop offset="1" stop-color="#ED333B"/></linearGradient><linearGradient id="b" x1="20" y1="115" x2="108" y2="115" gradientUnits="userSpaceOnUse"><stop offset=".844" stop-color="#FF7800"/><stop offset=".948" stop-color="#FFBE6F"/><stop offset="1" stop-color="#FFA348"/></linearGradient><linearGradient id="c" x1="20" y1="115" x2="108" y2="115" gradientUnits="userSpaceOnUse"><stop offset=".844" stop-color="#F5C211"/><stop offset=".948" stop-color="#F9F06B"/><stop offset="1" stop-color="#F8E45C"/></linearGradient><linearGradient id="d" x1="20" y1="116" x2="108" y2="116" gradientUnits="userSpaceOnUse"><stop offset=".844" stop-color="#33D17A"/><stop offset=".948" stop-color="#8FF0A4"/><stop offset="1" stop-color="#57E389"/></linearGradient><linearGradient id="e" x1="20" y1="116" x2="108" y2="116" gradientUnits="userSpaceOnUse"><stop offset=".844" stop-color="#C061CB"/><stop offset=".948" stop-color="#DC8ADD"/><stop offset="1" stop-color="#C061CB"/></linearGradient><linearGradient id="f" x1="52" y1="75" x2="76" y2="75" gradientUnits="userSpaceOnUse"><stop stop-color="#DEDDDA"/><stop offset=".045" stop-color="#EEEEEC"/><stop offset=".091" stop-color="#DEDDDA"/><stop offset=".909" stop-color="#DEDDDA"/><stop offset=".955" stop-color="#EEEEEC"/><stop offset="1" stop-color="#C0BFBC"/></linearGradient><linearGradient id="g" x1="65" y1="87" x2="65" y2="91" gradientUnits="userSpaceOnUse"><stop stop-color="#9A9996"/><stop offset="1" stop-color="#C0BFBC"/></linearGradient></defs></svg>